<svg width="176" height="137" viewBox="0 0 176 137" fill="none" xmlns="http://www.w3.org/2000/svg">
<circle cx="87.6199" cy="68.5" r="63.5" stroke="#FF0000" stroke-width="10"/>
<path d="M30.6198 9C11.2865 27.8333 -15.7802 78.5 30.6198 130.5" stroke="#FF0000" stroke-width="9" stroke-linecap="round"/>
<path d="M145.12 8C164.453 26.8333 191.52 77.5 145.12 129.5" stroke="#FF0000" stroke-width="9" stroke-linecap="round"/>
<path d="M67.96 78.04H57.48L55.8 83H48.64L58.8 54.92H66.72L76.88 83H69.64L67.96 78.04ZM66.2 72.76L62.72 62.48L59.28 72.76H66.2ZM96.9722 68.6C98.5989 68.9467 99.9055 69.76 100.892 71.04C101.879 72.2933 102.372 73.7333 102.372 75.36C102.372 77.7067 101.546 79.5733 99.8922 80.96C98.2655 82.32 95.9855 83 93.0522 83H79.9722V54.92H92.6122C95.4655 54.92 97.6922 55.5733 99.2922 56.88C100.919 58.1867 101.732 59.96 101.732 62.2C101.732 63.8533 101.292 65.2267 100.412 66.32C99.5589 67.4133 98.4122 68.1733 96.9722 68.6ZM86.8122 66.28H91.2922C92.4122 66.28 93.2655 66.04 93.8522 65.56C94.4655 65.0533 94.7722 64.32 94.7722 63.36C94.7722 62.4 94.4655 61.6667 93.8522 61.16C93.2655 60.6533 92.4122 60.4 91.2922 60.4H86.8122V66.28ZM91.8522 77.48C92.9989 77.48 93.8789 77.2267 94.4922 76.72C95.1322 76.1867 95.4522 75.4267 95.4522 74.44C95.4522 73.4533 95.1189 72.68 94.4522 72.12C93.8122 71.56 92.9189 71.28 91.7722 71.28H86.8122V77.48H91.8522ZM116.499 83.28C114.446 83.28 112.606 82.9467 110.979 82.28C109.353 81.6133 108.046 80.6267 107.059 79.32C106.099 78.0133 105.593 76.44 105.539 74.6H112.819C112.926 75.64 113.286 76.44 113.899 77C114.513 77.5333 115.313 77.8 116.299 77.8C117.313 77.8 118.113 77.5733 118.699 77.12C119.286 76.64 119.579 75.9867 119.579 75.16C119.579 74.4667 119.339 73.8933 118.859 73.44C118.406 72.9867 117.833 72.6133 117.139 72.32C116.473 72.0267 115.513 71.6933 114.259 71.32C112.446 70.76 110.966 70.2 109.819 69.64C108.673 69.08 107.686 68.2533 106.859 67.16C106.033 66.0667 105.619 64.64 105.619 62.88C105.619 60.2667 106.566 58.2267 108.459 56.76C110.353 55.2667 112.819 54.52 115.859 54.52C118.953 54.52 121.446 55.2667 123.339 56.76C125.233 58.2267 126.246 60.28 126.379 62.92H118.979C118.926 62.0133 118.593 61.3067 117.979 60.8C117.366 60.2667 116.579 60 115.619 60C114.793 60 114.126 60.2267 113.619 60.68C113.113 61.1067 112.859 61.7333 112.859 62.56C112.859 63.4667 113.286 64.1733 114.139 64.68C114.993 65.1867 116.326 65.7333 118.139 66.32C119.953 66.9333 121.419 67.52 122.539 68.08C123.686 68.64 124.673 69.4533 125.499 70.52C126.326 71.5867 126.739 72.96 126.739 74.64C126.739 76.24 126.326 77.6933 125.499 79C124.699 80.3067 123.526 81.3467 121.979 82.12C120.433 82.8933 118.606 83.28 116.499 83.28Z" fill="#FF0000"/>
</svg>
