<svg width="150" height="145" viewBox="0 0 150 145" fill="none" xmlns="http://www.w3.org/2000/svg">
<path d="M102.5 95.4998L87.5 75.9998C102.3 51.1998 110.333 49.9998 112.5 52.4998C119.3 61.6998 108.667 84.9998 102.5 95.4998Z" fill="#FF0000"/>
<path d="M122.5 71V57L143 45.5C151.4 48.3 149.833 54 148 56.5L122.5 71Z" fill="#FF0000"/>
<path d="M102.5 95.4998L87.5 75.9998C102.3 51.1998 110.333 49.9998 112.5 52.4998C119.3 61.6998 108.667 84.9998 102.5 95.4998Z" stroke="#FF0000"/>
<path d="M122.5 71V57L143 45.5C151.4 48.3 149.833 54 148 56.5L122.5 71Z" stroke="#FF0000"/>
<circle cx="41.5" cy="41.5" r="41.5" fill="#FF0000"/>
<circle cx="114.5" cy="27.5" r="19.5" fill="#FF0000"/>
<path d="M15.8129 128.787C12.3818 132.757 12.8181 138.756 16.7874 142.187C20.7568 145.618 26.756 145.182 30.1871 141.213L15.8129 128.787ZM48.5 105.5L44.8135 96.7445L42.7658 97.6066L41.3129 99.2874L48.5 105.5ZM61.6865 110.256L70.4421 106.569L63.069 89.0579L54.3135 92.7445L61.6865 110.256ZM23 135L30.1871 141.213L55.6871 111.713L48.5 105.5L41.3129 99.2874L15.8129 128.787L23 135ZM48.5 105.5L52.1865 114.256L61.6865 110.256L58 101.5L54.3135 92.7445L44.8135 96.7445L48.5 105.5Z" fill="#FF0000"/>
<path d="M93 130.5L68.9999 89C68.4405 88.0002 66.4999 80.5 71.9999 77.5C76.3999 75.1 80.5 77 83 79.4998L113.5 123C115.5 126 114.9 132 108.5 136C102.1 140 97 136 93 130.5Z" fill="#FF0000" stroke="#FF0000" stroke-width="2" stroke-linecap="square"/>
</svg>
