<svg width="176" height="144" viewBox="0 0 176 144" fill="none" xmlns="http://www.w3.org/2000/svg">
<circle cx="87.6199" cy="71.5" r="63.5" stroke="#FF0000" stroke-width="10"/>
<path d="M30.6198 12C11.2865 30.8333 -15.7802 81.5 30.6198 133.5" stroke="#FF0000" stroke-width="9" stroke-linecap="round"/>
<path d="M145.12 11C164.453 29.8333 191.52 80.5 145.12 132.5" stroke="#FF0000" stroke-width="9" stroke-linecap="round"/>
<path d="M115.312 60.304C115.312 64.208 114.416 67.792 112.624 71.056C110.832 74.256 108.08 76.848 104.368 78.832C100.656 80.816 96.048 81.808 90.544 81.808H80.368V106H63.952V38.608H90.544C95.92 38.608 100.464 39.536 104.176 41.392C107.888 43.248 110.672 45.808 112.528 49.072C114.384 52.336 115.312 56.08 115.312 60.304ZM89.296 68.752C92.432 68.752 94.768 68.016 96.304 66.544C97.84 65.072 98.608 62.992 98.608 60.304C98.608 57.616 97.84 55.536 96.304 54.064C94.768 52.592 92.432 51.856 89.296 51.856H80.368V68.752H89.296Z" fill="#FF0000"/>
</svg>
