<svg width="133" height="130" viewBox="0 0 133 130" fill="none" xmlns="http://www.w3.org/2000/svg">
<rect x="8.12305" width="74.4615" height="115.077" rx="4" fill="white"/>
<rect y="112.369" width="90.7077" height="16.2462" rx="2" fill="white"/>
<rect x="23.0154" y="13.5381" width="46.0308" height="35.2" rx="4" fill="black"/>
<path d="M91.3847 45.3535H82.5847V33.1691H94.0924C105.465 38.0429 108.308 46.4819 108.308 50.0921V111.015C108.308 113.723 110.339 117.108 113.723 117.108C118.224 117.108 119.815 113.723 119.815 111.015V42.646C107.902 36.6891 106.728 27.528 107.631 23.6921L92.7386 12.8612C91.1139 5.27966 97.477 3.83556 100.862 4.0612L132 25.0458V113.046C132 121.169 124.883 125.96 121.846 127.261C117.108 129.292 109.662 128.857 106.277 127.503C100.944 125.37 97.0302 122.286 96.8001 111.934C96.1232 81.4725 96.1232 83.9383 96.1232 50.7689C95.0401 46.4366 92.5129 45.3535 91.3847 45.3535Z" fill="white" stroke="white"/>
</svg>
